<?xml version="1.0" standalone="no"?>
<!DOCTYPE svg PUBLIC "-//W3C//DTD SVG 20010904//EN"
 "http://www.w3.org/TR/2001/REC-SVG-20010904/DTD/svg10.dtd">
<svg version="1.0" xmlns="http://www.w3.org/2000/svg"
 width="512.000000pt" height="512.000000pt" viewBox="0 0 512.000000 512.000000"
 preserveAspectRatio="xMidYMid meet">
<metadata>
Created by potrace 1.16, written by Peter Selinger 2001-2019
</metadata>
<g transform="translate(0.000000,512.000000) scale(0.100000,-0.100000)"
fill="#000000" stroke="none">
<path d="M2746 4561 c116 -81 200 -187 228 -285 20 -72 27 -132 20 -161 -6
-24 -10 -22 -83 53 -124 126 -310 238 -459 276 -142 37 -359 38 -496 1 -77
-20 -149 -52 -144 -64 1 -5 26 -27 53 -48 101 -80 165 -217 150 -322 -12 -86
-46 -141 -135 -221 -46 -41 -117 -106 -159 -143 -102 -92 -119 -91 -182 15
-152 257 -366 461 -507 484 -50 8 -52 1 -13 -53 106 -146 136 -303 89 -463
-17 -61 -22 -108 -26 -250 -9 -381 -12 -343 39 -445 58 -114 63 -134 43 -187
-27 -73 -27 -84 1 -164 23 -67 27 -89 22 -148 -4 -43 -15 -88 -30 -118 -13
-27 -20 -51 -15 -54 5 -3 31 -1 57 6 54 13 83 39 126 115 15 28 50 80 76 116
77 104 99 163 110 285 9 101 20 144 38 144 12 0 84 -79 115 -126 14 -22 32
-73 41 -114 32 -154 103 -352 202 -562 45 -97 46 -97 29 -132 -20 -43 -20 -41
6 -76 l22 -30 -23 -21 c-71 -66 -35 -150 81 -190 36 -12 54 -23 56 -37 4 -23
-9 -34 -70 -56 -55 -20 -85 -53 -94 -102 -9 -46 11 -89 53 -115 19 -12 41 -31
49 -43 20 -32 2 -80 -41 -106 -58 -36 -85 -76 -85 -127 0 -33 -6 -53 -25 -75
-42 -49 -49 -102 -24 -183 1 -5 -3 -22 -10 -36 -38 -78 100 -133 399 -159 150
-13 614 -13 760 0 153 14 334 47 386 70 52 22 79 60 68 92 -5 13 -8 53 -9 89
0 53 -5 72 -25 102 -14 20 -35 42 -47 48 -17 9 -21 18 -17 35 8 31 -16 72 -71
121 -43 39 -46 44 -43 85 3 40 6 44 49 65 112 53 118 142 13 213 -41 29 -45
35 -42 68 3 34 8 40 60 67 68 37 114 78 122 111 8 31 -18 82 -49 96 -37 17
-38 17 56 155 20 29 15 61 -16 99 l-23 28 50 37 c27 21 85 50 128 65 44 15 94
39 110 53 63 53 43 138 -42 183 -35 18 -59 22 -133 22 -51 0 -109 -6 -135 -14
l-45 -14 120 -6 c133 -7 188 -24 206 -64 10 -20 9 -30 -4 -50 -23 -35 -72 -47
-219 -53 -215 -9 -394 38 -491 129 -41 39 -45 59 -23 132 29 96 107 160 238
191 73 18 98 40 98 83 0 43 -32 94 -79 123 -60 39 -77 37 -36 -4 39 -39 50
-72 41 -121 -6 -32 -11 -36 -71 -56 -35 -12 -82 -34 -104 -50 -45 -33 -111
-124 -111 -154 0 -23 -38 25 -95 120 -37 62 -40 62 -24 -1 5 -22 11 -48 14
-58 6 -25 41 -80 65 -102 11 -10 20 -23 20 -28 0 -17 -38 23 -71 74 -17 27
-28 53 -24 59 3 5 2 10 -4 10 -12 0 -36 80 -47 155 l-8 50 -8 -50 c-18 -123
48 -279 176 -414 57 -60 48 -59 -37 8 -103 80 -197 223 -230 351 -14 51 -15
53 -22 27 -12 -44 0 -156 23 -219 11 -32 18 -58 16 -58 -14 0 -84 175 -99 245
-22 103 -22 276 -1 375 9 41 16 77 16 80 -1 17 -24 -36 -46 -105 -34 -106 -36
-278 -5 -398 56 -213 211 -402 406 -496 110 -54 197 -73 332 -75 78 -1 114 -5
117 -13 8 -21 -12 -25 -92 -18 -127 10 -212 26 -308 56 -219 70 -415 261 -500
489 -74 198 -71 370 10 615 3 11 -7 -8 -24 -41 -47 -93 -63 -187 -57 -329 5
-131 26 -213 79 -320 96 -191 239 -334 419 -420 97 -46 204 -72 340 -84 132
-11 171 -31 62 -31 -156 0 -325 40 -465 111 -274 138 -477 404 -534 697 -20
105 -18 287 5 397 45 218 167 411 320 505 28 17 51 34 51 36 0 3 -33 -12 -72
-33 -89 -46 -207 -160 -261 -253 -70 -120 -117 -310 -117 -468 0 -152 71 -517
116 -602 75 -139 252 -319 369 -375 113 -54 210 -70 431 -70 168 0 191 -1 185
-15 -3 -8 -19 -38 -34 -67 -30 -57 -36 -60 -172 -88 l-70 -15 78 5 c43 3 107
12 142 22 76 20 98 10 93 -41 -2 -26 -11 -35 -48 -53 -96 -47 -363 -76 -710
-76 -256 -1 -393 10 -522 39 -114 26 -164 89 -95 122 16 8 27 21 27 34 0 16 4
19 23 14 59 -17 267 -46 393 -56 145 -10 474 -14 474 -5 0 3 -62 65 -137 137
-276 264 -357 351 -418 445 -32 51 -60 91 -62 89 -10 -10 46 -141 102 -240 35
-61 66 -122 70 -136 6 -24 6 -24 -19 5 -50 59 -78 104 -106 173 -15 38 -67
125 -115 193 -156 221 -188 316 -188 559 0 182 21 307 87 505 3 11 -5 -4 -19
-34 -72 -151 -115 -408 -96 -566 6 -49 9 -90 7 -93 -2 -2 -13 32 -23 75 -14
61 -18 118 -18 258 0 156 3 190 23 258 23 81 86 216 129 277 l24 35 -31 -35
c-48 -54 -127 -223 -155 -334 -50 -198 -43 -382 22 -578 46 -140 110 -242 228
-367 95 -100 103 -113 86 -140 -7 -11 -43 20 -157 135 -193 195 -234 260 -275
429 -52 221 -25 522 66 723 13 28 22 52 19 52 -3 0 -20 -33 -39 -72 -109 -233
-124 -486 -44 -763 19 -66 76 -182 122 -250 l20 -30 -32 30 c-18 17 -55 75
-82 130 -27 55 -49 97 -49 94 0 -17 43 -126 66 -170 34 -61 105 -129 171 -163
63 -31 119 -95 169 -189 21 -39 59 -105 85 -145 48 -72 89 -167 89 -200 -1 -9
-14 8 -30 39 -38 73 -108 150 -235 254 -127 104 -198 182 -281 306 -117 175
-148 292 -148 549 0 173 14 280 54 395 11 32 18 60 16 62 -5 6 -54 -136 -73
-212 -32 -132 -22 -379 23 -550 12 -46 -46 65 -62 120 -23 74 -27 377 -6 464
19 82 7 72 -14 -11 -29 -114 -22 -376 13 -476 4 -13 3 -14 -6 -6 -7 6 -23 44
-38 85 -34 99 -43 280 -19 383 22 93 13 96 -10 4 -25 -96 -23 -235 5 -342 12
-44 19 -81 17 -83 -2 -2 -12 16 -22 41 -14 34 -21 41 -25 28 -5 -12 -10 -4
-20 28 -14 49 -19 313 -7 365 7 28 6 28 -8 -4 -22 -49 -28 -190 -12 -293 13
-83 13 -86 -6 -82 -33 6 -66 46 -81 98 -36 120 -6 275 82 425 23 39 27 42 38
28 19 -27 68 -20 118 16 25 17 86 67 136 109 264 225 511 328 787 328 126 0
353 -48 374 -79 3 -4 36 -27 74 -50 199 -120 354 -298 453 -519 34 -77 37 -57
6 38 -51 151 -197 333 -348 435 -82 54 -86 58 -45 50 83 -17 164 -68 261 -165
137 -136 215 -281 273 -504 26 -99 42 -244 29 -263 -5 -7 -44 -19 -87 -28
-136 -28 -225 -71 -366 -175 -90 -67 -140 -133 -147 -193 l-4 -42 19 40 c66
137 387 308 582 310 113 0 162 -42 128 -112 -10 -21 -19 -27 -38 -25 -147 20
-256 1 -390 -68 -69 -37 -171 -111 -178 -130 -2 -5 27 7 65 26 101 51 184 74
267 74 74 0 87 -4 102 -31 8 -15 16 -13 78 12 108 44 156 100 156 183 0 56
-35 101 -91 117 l-39 12 0 67 c0 203 -95 498 -215 665 -44 62 -159 178 -207
209 -21 14 -29 31 -38 74 -19 95 -58 204 -98 271 -76 130 -244 284 -403 371
-101 54 -117 50 -33 -9z m-374 -145 c137 -27 258 -81 371 -165 99 -73 241
-230 224 -248 -4 -3 -44 3 -89 13 -65 15 -122 19 -258 19 -214 0 -292 -17
-480 -106 -120 -56 -123 -57 -87 -25 153 137 491 209 757 162 l74 -13 -53 49
c-106 97 -247 177 -386 219 -88 26 -294 37 -377 20 l-56 -12 21 -44 c21 -44
23 -45 57 -37 60 12 222 6 288 -11 62 -16 177 -66 170 -73 -2 -2 -40 9 -83 23
-102 33 -289 43 -375 19 -50 -14 -56 -14 -65 1 -55 86 -73 109 -111 137 l-43
33 72 21 c40 12 83 23 97 25 62 10 264 6 332 -7z m688 -112 c48 -55 95 -132
124 -202 25 -62 62 -210 54 -217 -2 -2 -46 11 -98 29 l-95 32 -6 155 c-5 121
-10 165 -27 206 -18 48 -18 52 -2 43 9 -5 32 -26 50 -46z m-830 -134 c-14 -11
-30 -20 -35 -20 -6 0 -26 -14 -45 -31 -19 -17 -28 -26 -19 -20 26 18 111 41
149 40 l35 -1 -45 -12 c-71 -20 -122 -44 -163 -77 -21 -17 -40 -29 -41 -28 -2
2 -7 30 -10 62 l-7 57 35 15 c31 13 114 31 156 34 9 0 6 -7 -10 -19z m-1070
-117 c60 -35 247 -225 288 -293 19 -30 51 -82 71 -115 l38 -61 -38 -43 -38
-42 -7 38 c-5 21 -8 58 -8 83 1 32 -1 39 -7 25 -4 -11 -8 -56 -9 -100 -2 -126
-18 -138 -19 -13 -1 103 -2 108 -38 177 -44 82 -102 163 -174 241 l-50 55 62
-120 c34 -66 79 -149 99 -185 83 -145 77 -146 -25 -5 -118 162 -107 132 25
-65 69 -104 80 -124 45 -85 -206 228 -198 218 -211 295 -8 46 -28 103 -55 158
-24 48 -45 90 -47 95 -5 11 46 -10 98 -40z m214 -571 c21 -22 36 -46 33 -54
-4 -9 -6 -8 -6 4 -1 17 -48 53 -126 97 l-40 23 45 -39 c24 -21 63 -55 85 -76
l40 -39 -45 30 c-53 34 -110 65 -110 58 0 -3 21 -19 48 -37 76 -52 112 -90
111 -118 -2 -22 -2 -23 -6 -5 -2 12 -14 31 -26 42 -19 18 -223 136 -251 145
-5 2 0 31 12 67 12 35 22 72 22 83 0 14 23 -2 88 -61 48 -44 104 -98 126 -120z
m-149 -88 c58 -25 121 -59 141 -75 43 -34 41 -35 -17 -10 -24 11 -85 29 -136
41 -91 23 -91 23 -95 56 -2 19 -3 34 -1 34 1 0 50 -21 108 -46z m71 -94 c43
-11 83 -25 89 -31 7 -8 2 -10 -20 -5 -16 4 -78 9 -137 13 -96 5 -108 8 -108
24 0 16 8 19 48 19 27 0 84 -9 128 -20z m-54 -50 c146 -14 174 -26 83 -34 -38
-4 -102 -16 -142 -26 -86 -24 -82 -24 -78 -2 12 59 16 72 23 72 4 0 55 -5 114
-10z m148 -68 c0 -5 -19 -15 -42 -22 -48 -14 -143 -60 -173 -84 -23 -18 33 1
139 48 83 37 89 32 20 -15 -60 -42 -164 -137 -164 -151 0 -4 48 28 106 72 58
44 110 80 115 80 18 0 7 -16 -34 -48 -45 -37 -127 -131 -127 -147 0 -5 41 31
92 80 50 50 85 80 77 69 -8 -12 -34 -49 -57 -84 -43 -61 -84 -141 -97 -190 -3
-14 7 0 23 31 26 49 98 157 124 184 6 6 -6 -22 -25 -61 -43 -85 -57 -135 -97
-324 -16 -81 -35 -162 -42 -183 -13 -36 -13 -35 -13 36 0 46 -7 91 -20 124
-18 50 -18 55 -2 106 28 89 23 123 -34 232 -38 73 -52 112 -56 155 l-5 57 108
17 c60 10 116 19 124 21 32 6 60 5 60 -3z m38 -167 c-3 -3 -9 2 -12 12 -6 14
-5 15 5 6 7 -7 10 -15 7 -18z m59 -66 c14 -5 -2 -197 -23 -260 -8 -26 -39 -82
-69 -125 -30 -44 -73 -109 -95 -145 -39 -64 -76 -107 -84 -98 -2 2 18 54 45
114 26 61 63 164 81 230 34 123 51 138 23 21 -21 -92 -18 -101 9 -34 35 83 69
243 64 297 l-5 47 22 -22 c12 -11 26 -23 32 -25z m422 -512 c32 -40 116 -133
187 -208 216 -227 251 -284 192 -318 -23 -13 -39 -14 -120 -3 -91 11 -193 34
-204 45 -3 3 2 17 11 31 33 49 23 90 -62 281 -91 202 -163 371 -163 382 0 3
22 -26 50 -66 27 -40 76 -105 109 -144z m876 4 c48 -51 52 -59 22 -37 -34 26
-93 98 -111 136 -4 8 1 4 11 -10 10 -14 45 -54 78 -89z m-55 -504 l35 -29 -53
28 c-55 29 -171 134 -192 175 -7 13 29 -15 81 -61 52 -47 110 -98 129 -113z
m462 -339 c3 -24 0 -46 -6 -50 -14 -10 -150 -28 -321 -42 l-150 -14 102 -1
c101 -1 297 20 362 39 29 8 40 6 68 -11 65 -41 67 -87 5 -112 -21 -8 -96 -23
-167 -33 -183 -26 -721 -26 -874 -1 -113 18 -185 53 -211 103 -27 49 9 68 99
53 20 -3 29 3 47 35 12 22 30 43 39 49 11 6 84 5 202 -3 205 -14 516 -8 668
14 141 20 132 22 137 -26z m-23 -300 c-5 -62 2 -80 61 -143 63 -68 72 -92 43
-118 -49 -43 -330 -72 -698 -72 -470 0 -645 34 -645 126 0 21 10 36 37 56 62
46 113 103 113 124 0 16 4 19 18 14 49 -19 203 -46 327 -56 230 -18 506 7 657
59 46 16 84 30 86 31 1 0 2 -9 1 -21z m-1164 -333 c28 -9 113 -30 190 -46 200
-43 409 -49 632 -20 190 25 330 52 427 83 l69 22 23 -30 c50 -62 38 -145 -23
-171 -109 -45 -408 -67 -810 -60 -426 8 -594 33 -622 93 -28 63 6 177 47 155
9 -5 40 -16 67 -26z"/>
<path d="M1210 3506 c0 -2 7 -7 16 -10 8 -3 12 -2 9 4 -6 10 -25 14 -25 6z"/>
<path d="M2325 1075 c10 -5 27 -18 39 -28 20 -18 17 -18 -114 -14 -133 4 -134
4 -80 -10 87 -23 588 -30 703 -10 81 14 205 62 193 74 -2 3 -59 0 -124 -6
-132 -12 -420 -13 -551 -2 -58 4 -78 3 -66 -4z"/>
<path d="M1908 930 c26 -21 116 -44 252 -62 129 -17 693 -17 820 0 116 16 220
37 280 57 50 16 42 15 -125 -14 -191 -34 -359 -44 -649 -38 -282 6 -408 19
-527 57 -78 24 -80 24 -51 0z"/>
<path d="M2322 3688 c-147 -185 -214 -382 -215 -628 -1 -140 13 -235 54 -355
17 -52 19 -55 15 -20 -3 22 -13 101 -22 175 -41 334 21 611 186 835 55 74 44
70 -18 -7z"/>
<path d="M2579 3548 c9 -27 66 -68 92 -68 23 0 23 -4 2 -38 -16 -24 -13 -23
26 10 57 48 98 61 177 56 81 -5 138 -42 173 -111 70 -141 -21 -302 -170 -300
-25 0 -59 8 -76 16 -43 23 -83 74 -83 105 l1 27 13 -30 c19 -44 55 -72 106
-86 40 -11 51 -10 92 9 56 24 83 62 83 117 0 85 -91 166 -166 150 -38 -9 -98
-60 -115 -100 -7 -16 -13 -23 -14 -15 0 8 9 30 20 48 l20 33 -21 -11 c-24 -13
-58 -83 -59 -119 0 -71 56 -162 116 -187 51 -22 131 -17 190 10 192 89 191
358 -2 472 -57 33 -127 40 -196 20 -70 -20 -158 -21 -184 -1 -27 21 -35 18
-25 -7z m387 -213 c19 -29 14 -48 -20 -70 -31 -20 -63 -7 -72 31 -14 55 60 87
92 39z"/>
<path d="M1581 3384 c0 -11 3 -14 6 -6 3 7 2 16 -1 19 -3 4 -6 -2 -5 -13z"/>
<path d="M1571 3344 c0 -11 3 -14 6 -6 3 7 2 16 -1 19 -3 4 -6 -2 -5 -13z"/>
<path d="M1488 3270 c-7 -68 7 -204 24 -230 6 -10 7 -6 2 15 -4 17 -10 86 -13
155 -6 118 -6 121 -13 60z"/>
<path d="M2649 3093 c33 -62 131 -116 219 -121 91 -6 145 12 206 70 l51 49
-44 -31 c-120 -83 -271 -79 -390 11 -29 22 -48 31 -42 22z"/>
<path d="M1571 3024 c0 -11 3 -14 6 -6 3 7 2 16 -1 19 -3 4 -6 -2 -5 -13z"/>
</g>
</svg>